<svg xmlns="http://www.w3.org/2000/svg" viewBox="0 0 55.99 11.75"><title>22222</title><g id="Capa_2" data-name="Capa 2"><g id="Capa_1-2" data-name="Capa 1"><path d="M0,3.54V8.21a1.23,1.23,0,0,0,.6,1l4.05,2.33a1.17,1.17,0,0,0,1.2,0L9.9,9.26a1.23,1.23,0,0,0,.6-1V3.54a1.2,1.2,0,0,0-.6-1L5.85.16a1.22,1.22,0,0,0-1.2,0L.6,2.5A1.2,1.2,0,0,0,0,3.54Z" style="fill:#4d4d4d"/><path d="M10.05,3.91a.17.17,0,0,0-.25-.15L6,6a.46.46,0,0,0-.19.35v4.39a.17.17,0,0,0,.25.14L9.88,8.67c.12-.05.18-.31.18-.37" style="fill:#fff"/><path d="M18.62,10.51H15.14V2.11h1.32V9.19h2.16Z" style="fill:#fff"/><path d="M22.15,9.18H20.63l-.24,1.33H19.05l1.68-8.4h1.32l1.68,8.4H22.39Zm-.23-1.32-.53-3-.53,3Z" style="fill:#fff"/><path d="M26.37,10.51h-2V2.11h1.81a2,2,0,0,1,1.38.47,1.71,1.71,0,0,1,.46.67,2.48,2.48,0,0,1,.15.89v.78a1.69,1.69,0,0,1-.48,1.3,1.71,1.71,0,0,1,.66,1.51V8.5a2.26,2.26,0,0,1-.15.87,1.68,1.68,0,0,1-.46.68A2,2,0,0,1,26.37,10.51ZM25.7,5.67h.49a.68.68,0,0,0,.49-.15.83.83,0,0,0,.18-.6V4.14a.75.75,0,0,0-.17-.57.71.71,0,0,0-.5-.14H25.7Zm0,3.52h.67a.71.71,0,0,0,.5-.13A.71.71,0,0,0,27,8.5V7.73a.8.8,0,0,0-.18-.6A.68.68,0,0,0,26.37,7H25.7Z" style="fill:#fff"/><path d="M30.44,9.88a.68.68,0,0,1-1.35,0,.67.67,0,0,1,.2-.48.65.65,0,0,1,.48-.19.64.64,0,0,1,.47.19A.67.67,0,0,1,30.44,9.88Z" style="fill:#fff"/><path d="M33.33,10.51h-2V2.11h2a1.94,1.94,0,0,1,1.39.51,2,2,0,0,1,.6,1.56V8.5a2.56,2.56,0,0,1-.14.87,1.76,1.76,0,0,1-.47.68A2,2,0,0,1,33.33,10.51Zm-.67-1.32h.67a.71.71,0,0,0,.5-.13C34,9,34,8.78,34,8.5V4.18a.83.83,0,0,0-.18-.6.68.68,0,0,0-.49-.15h-.67Z" style="fill:#fff"/><path d="M37.49,10.51H36.17V2.11h1.32Z" style="fill:#fff"/><path d="M40.25,10.61a2,2,0,0,1-1.39-.49,2.09,2.09,0,0,1-.6-1.57V7.45h1.32v1.1a.83.83,0,0,0,.18.6.75.75,0,0,0,.49.14.73.73,0,0,0,.5-.14.8.8,0,0,0,.18-.6V8a1.25,1.25,0,0,0-.45-1,3.1,3.1,0,0,0-.5-.31,4.84,4.84,0,0,1-.83-.53,2.65,2.65,0,0,1-.66-.88,2.51,2.51,0,0,1-.23-1V4.08a2.07,2.07,0,0,1,.6-1.57A2,2,0,0,1,40.25,2a2,2,0,0,1,1.4.49,2.07,2.07,0,0,1,.6,1.57v.73H40.93V4.08a.8.8,0,0,0-.18-.6.73.73,0,0,0-.5-.14.75.75,0,0,0-.49.14.8.8,0,0,0-.18.6v.21a1.21,1.21,0,0,0,.45.94,3.22,3.22,0,0,0,.46.29,5.42,5.42,0,0,1,.87.55A2.53,2.53,0,0,1,42.25,8v.53a2.09,2.09,0,0,1-.6,1.57A2,2,0,0,1,40.25,10.61Z" style="fill:#fff"/><path d="M44.33,3.43V5.55h1.49V6.87H44.33V9.19h2.16v1.32H43V2.11h3.48V3.43Z" style="fill:#fff"/><path d="M49.07,10.61a2,2,0,0,1-1.39-.49,2.13,2.13,0,0,1-.6-1.57V4.08a2.12,2.12,0,0,1,.6-1.57A2,2,0,0,1,49.07,2a2,2,0,0,1,1.4.49,2.07,2.07,0,0,1,.6,1.57v.75H49.75V4.08a.84.84,0,0,0-.17-.6.78.78,0,0,0-.51-.14.75.75,0,0,0-.49.14.8.8,0,0,0-.18.6V8.55a.83.83,0,0,0,.18.6.75.75,0,0,0,.49.14.78.78,0,0,0,.51-.14.84.84,0,0,0,.17-.6V7h-.66V5.65h2v2.9a2.09,2.09,0,0,1-.6,1.57A2,2,0,0,1,49.07,10.61Z" style="fill:#fff"/><path d="M56,10.51h-.77l-2-4.26v4.26H51.88V2.11h.77l2,4.25V2.11H56Z" style="fill:#fff"/></g></g></svg>